<svg width="24" height="24" viewBox="0 0 24 24" fill="none" xmlns="http://www.w3.org/2000/svg">
<rect x="2" y="4" width="2" height="16" fill="#A2A7AA"/>
<rect x="19" y="13.8584" width="2" height="16" transform="rotate(90 19 13.8584)" fill="#A2A7AA"/>
<rect x="20" y="14" width="2" height="6" fill="#A2A7AA"/>
<mask id="path-4-inside-1_1_1183" fill="white">
<path d="M18.5 7.8584C20.433 7.8584 22 9.4254 22 11.3584L22 14.8584C22 15.4107 21.5523 15.8584 21 15.8584L12 15.8584C11.4477 15.8584 11 15.4107 11 14.8584L11 8.8584C11 8.30611 11.4477 7.8584 12 7.8584L18.5 7.8584Z"/>
</mask>
<path d="M18.5 7.8584C20.433 7.8584 22 9.4254 22 11.3584L22 14.8584C22 15.4107 21.5523 15.8584 21 15.8584L12 15.8584C11.4477 15.8584 11 15.4107 11 14.8584L11 8.8584C11 8.30611 11.4477 7.8584 12 7.8584L18.5 7.8584Z" stroke="#A2A7AA" stroke-width="4" mask="url(#path-4-inside-1_1_1183)"/>
<path d="M7.49933 8.92969C8.4964 8.92969 9.30469 9.73798 9.30469 10.735C9.30469 11.7321 8.4964 12.5404 7.49933 12.5404C6.50225 12.5404 5.69396 11.7321 5.69396 10.735C5.69396 9.73798 6.50225 8.92969 7.49933 8.92969Z" fill="#A2A7AA"/>
</svg>
