<svg
  width="16"
  height="16"
  viewBox="0 0 16 16"
  fill="none"
  xmlns="http://www.w3.org/2000/svg"
  color="#848484"
>
  <path
    d="M7.99992 2.66671C6.58543 2.66671 5.22888 3.22861 4.22868 4.2288C3.22849 5.229 2.66659 6.58555 2.66659 8.00004C2.66659 8.70042 2.80454 9.39395 3.07256 10.041C3.34059 10.6881 3.73344 11.276 4.22868 11.7713C4.72393 12.2665 5.31187 12.6594 5.95894 12.9274C6.60601 13.1954 7.29954 13.3334 7.99992 13.3334C8.7003 13.3334 9.39383 13.1954 10.0409 12.9274C10.688 12.6594 11.2759 12.2665 11.7712 11.7713C12.2664 11.276 12.6593 10.6881 12.9273 10.041C13.1953 9.39395 13.3333 8.70042 13.3333 8.00004C13.3333 6.58555 12.7713 5.229 11.7712 4.2288C10.771 3.22861 9.41441 2.66671 7.99992 2.66671ZM3.28587 3.286C4.53612 2.03575 6.23181 1.33337 7.99992 1.33337C9.76803 1.33337 11.4637 2.03575 12.714 3.286C13.9642 4.53624 14.6666 6.23193 14.6666 8.00004C14.6666 8.87552 14.4941 9.74243 14.1591 10.5513C13.8241 11.3601 13.333 12.095 12.714 12.7141C12.0949 13.3331 11.36 13.8242 10.5511 14.1592C9.7423 14.4943 8.8754 14.6667 7.99992 14.6667C7.12444 14.6667 6.25753 14.4943 5.4487 14.1592C4.63986 13.8242 3.90493 13.3331 3.28587 12.7141C2.66682 12.095 2.17575 11.3601 1.84072 10.5513C1.50569 9.74243 1.33325 8.87552 1.33325 8.00004C1.33325 6.23193 2.03563 4.53624 3.28587 3.286Z"
    fill="currentColor"
  />
  <path
    d="M7.58286 8.52018C7.43068 8.39799 7.33325 8.21039 7.33325 8.00004V5.33337C7.33325 4.96518 7.63173 4.66671 7.99992 4.66671C8.36811 4.66671 8.66659 4.96518 8.66659 5.33337V7.7239L10.7546 9.81195C11.015 10.0723 11.015 10.4944 10.7546 10.7548C10.4943 11.0151 10.0722 11.0151 9.81183 10.7548L7.63181 8.57474C7.61432 8.55725 7.598 8.53903 7.58286 8.52018Z"
    fill="currentColor"
  />
</svg>
