<svg width="16" height="16" viewBox="0 0 16 16" fill="none" xmlns="http://www.w3.org/2000/svg">
<path d="M9.33317 2.66669C8.96498 2.66669 8.6665 2.96516 8.6665 3.33335C8.6665 3.70154 8.96498 4.00002 9.33317 4.00002H11.0235L7.29582 7.72769C7.03547 7.98804 7.03547 8.41015 7.29582 8.6705C7.55617 8.93085 7.97828 8.93085 8.23863 8.6705L11.9998 4.90929V6.66669C11.9998 7.03488 12.2983 7.33335 12.6665 7.33335C13.0347 7.33335 13.3332 7.03488 13.3332 6.66669V3.33335C13.3332 2.96516 13.0347 2.66669 12.6665 2.66669H9.33317Z" fill="#2362AF"/>
<path d="M2.68005 3.86566C2.74221 3.56187 3.011 3.33335 3.33317 3.33335C3.33309 3.33335 3.33325 3.33335 3.33317 3.33335H5.99984C6.36803 3.33335 6.6665 3.63183 6.6665 4.00002C6.6665 4.36821 6.36803 4.66669 5.99984 4.66669H3.99984L3.99984 12H11.3332V10C11.3332 9.63183 11.6316 9.33335 11.9998 9.33335C12.368 9.33335 12.6665 9.63183 12.6665 10V12.6667C12.6665 13.0349 12.368 13.3334 11.9998 13.3334H3.33317C3.31016 13.3334 3.28742 13.3322 3.26501 13.3299C2.92884 13.2958 2.6665 13.0119 2.6665 12.6667V4.00002C2.6665 3.954 2.67117 3.90906 2.68005 3.86566Z" fill="#2362AF"/>
</svg>
