<svg
  width="16"
  height="20"
  viewBox="0 0 16 20"
  fill="none"
  color="#A2A7AA"
  xmlns="http://www.w3.org/2000/svg"
>
  <path
    d="M8.12103 2.00098C11.6046 2.00098 14.2876 5.07467 13.8169 8.52631C13.6712 9.59502 13.2278 10.6012 12.5372 11.4298L7.998 16.8769L3.45875 11.4298C2.76825 10.6012 2.32479 9.59502 2.17905 8.52631C1.70837 5.07467 4.39138 2.00098 7.87496 2.00098H8.12103ZM7.87496 0.000976562C3.17941 0.000976562 -0.43704 4.14404 0.197392 8.79654C0.393827 10.2371 0.991571 11.5933 1.92231 12.7101L7.66658 19.6033C7.83906 19.8102 8.15694 19.8102 8.32941 19.6033L14.0737 12.7101C15.0044 11.5933 15.6022 10.2371 15.7986 8.79654C16.433 4.14404 12.8166 0.000976562 8.12103 0.000976562H7.87496Z"
    fill="currentColor"
  />
  <path
    d="M6.498 7.74403C6.498 6.91561 7.16957 6.24403 7.998 6.24403C8.82642 6.24403 9.498 6.91561 9.498 7.74403C9.498 8.57246 8.82642 9.24403 7.998 9.24403C7.16957 9.24403 6.498 8.57246 6.498 7.74403Z"
    fill="currentColor"
  />
</svg>
