<svg width="24" height="24" viewBox="0 0 24 24" fill="none" xmlns="http://www.w3.org/2000/svg">
<path d="M15.0227 9.91828C15.0939 10.4142 14.776 10.7833 14.3704 10.7833C13.9647 10.7833 13.6432 10.4512 13.5629 10.0536C13.4523 9.50662 13.2183 8.98861 12.8747 8.54082C12.531 8.09302 12.0913 7.73285 11.5915 7.4845C11.2283 7.30397 10.9907 6.90751 11.0957 6.51568C11.2007 6.12384 11.6225 5.91163 12.0584 6.09814C12.8675 6.44437 13.4994 6.94189 14.0401 7.64654C14.5808 8.35119 14.8976 9.04717 15.0227 9.91828Z" fill="white"/>
<path d="M10.5056 2C5.8081 2 2 5.8081 2 10.5056C2 15.2032 5.8081 19.0113 10.5056 19.0113C12.0623 19.0113 13.5213 18.5931 14.7764 17.863C15.0281 17.9517 15.2988 17.9999 15.5809 17.9999C15.8803 17.9999 16.1671 17.9455 16.4318 17.846L20.2929 21.7071C20.6834 22.0976 21.3166 22.0976 21.7071 21.7071C22.0976 21.3166 22.0976 20.6834 21.7071 20.2929L17.8461 16.4318C17.9456 16.1671 18 15.8803 18 15.5808C18 15.2988 17.9517 15.028 17.863 14.7763C18.5931 13.5212 19.0113 12.0623 19.0113 10.5056C19.0113 5.8081 15.2032 2 10.5056 2ZM4 10.5056C4 6.91267 6.91267 4 10.5056 4C14.0986 4 17.0113 6.91267 17.0113 10.5056C17.0113 14.0986 14.0986 17.0113 10.5056 17.0113C6.91267 17.0113 4 14.0986 4 10.5056Z" fill="white"/>
</svg>
